# AST/ASF file generated using VICON BodyLanguage
# -----------------------------------------------
:version 1.10
:name VICON
:units
  mass 1.0
  length 0.45
  angle deg
:documentation
   .ast/.asf automatically generated from VICON data using
   VICON BodyBuilder and BodyLanguage model FoxedUp or BRILLIANT.MOD
:root
   order TX TY TZ RX RY RZ
   axis XYZ
   position 0 0 0  
   orientation 0 0 0 
:bonedata
  begin
     id 1 
     name lhipjoint
     direction 0.528046 -0.759594 0.379717 
     length 2.39752 
     axis 0 0 0  XYZ
  end
  begin
     id 2 
     name lfemur
     direction 0.34202 -0.939693 0  
     length 7.31175  
     axis 0 0 20  XYZ
    dof rx ry rz
    limits (-160.0 20.0)
           (-70.0 70.0)
           (-60.0 70.0)
  end
  begin
     id 3 
     name ltibia
     direction 0.34202 -0.939693 0   
     length 7.52482   
     axis 0 0 20   XYZ
    dof rx
    limits (-10.0 170.0)
  end
  begin
     id 4 
     name lfoot
     direction 0.0675379 -0.185559 0.980309   
     length 2.00961   
     axis -90 7.62852e-016 20   XYZ
    dof rx rz
    limits (-45.0 90.0)
           (-70.0 20.0)
  end
  begin
     id 5 
     name ltoes
     direction 1.5352e-011 -4.22286e-011 1   
     length 1.01383   
     axis -90 7.62852e-016 20   XYZ
    dof rx
    limits (-90.0 20.0)
  end
  begin
     id 6 
     name rhipjoint
     direction -0.510274 -0.769251 0.384544   
     length 2.36742  
     axis 0 0 0  XYZ 
  end
  begin
     id 7 
     name rfemur
     direction -0.34202 -0.939693 0   
     length 7.45325   
     axis 0 0 -20   XYZ
    dof rx ry rz
    limits (-160.0 20.0)
           (-70.0 70.0)
           (-70.0 60.0)
  end
  begin
     id 8 
     name rtibia
     direction -0.34202 -0.939693 0   
     length 7.49587   
     axis 0 0 -20   XYZ
    dof rx
    limits (-10.0 170.0)
 end
 begin
     id 9 
     name rfoot
     direction -0.106475 -0.292536 0.950308   
     length 2.20898  
     axis -90 -7.62852e-016 -20   XYZ
    dof rx rz
    limits (-45.0 90.0)
           (-20.0 70.0)
  end
  begin
     id 10 
     name rtoes
     direction -1.53597e-011 -4.22023e-011 1   
     length 1.10065   
     axis -90 -7.62852e-016 -20   XYZ
    dof rx
    limits (-90.0 20.0)
  end
  begin
     id 11 
     name lowerback
     direction 0.0260024 0.998026 -0.0571652   
     length 2.11214   
     axis 0 0 0   XYZ
    dof rx ry rz
    limits (-20.0 45.0)
           (-30.0 30.0)
           (-30.0 30.0)
  end
  begin
     id 12 
     name upperback
     direction 0.0216202 0.999542 -0.0211766   
     length 2.11689   
     axis 0 0 0   XYZ
    dof rx ry rz
    limits (-20.0 45.0)
           (-30.0 30.0)
           (-30.0 30.0)
  end
  begin
     id 13 
     name thorax
     direction 0.00883312 0.999944 0.00589057   
     length 2.11821   
     axis 0 0 0   XYZ
    dof rx ry rz
    limits (-20.0 45.0)
           (-30.0 30.0)
           (-30.0 30.0)
  end
  begin
     id 14 
     name lowerneck
     direction -0.059386 0.994433 0.0870401   
     length 1.81176   
     axis 0 0 0   XYZ
    dof rx ry rz
    limits (-20.0 45.0)
           (-30.0 30.0)
           (-30.0 30.0)
  end
  begin
     id 15 
     name upperneck
     direction 0.0506457 0.97328 -0.223967   
     length 1.82382   
     axis 0 0 0   XYZ
    dof rx ry rz
    limits (-20.0 45.0)
           (-30.0 30.0)
           (-30.0 30.0)
  end
  begin
     id 16
     name head
     direction 0.0205902 0.996147 -0.0852487  
     length 1.84805  
     axis 0 0 0   XYZ
    dof rx ry rz
    limits (-20.0 45.0)
           (-30.0 30.0)
           (-30.0 30.0)
  end
  begin
     id 17 
     name lclavicle
     direction 0.949493 0.303881 -0.0782325  
     length 3.60584  
     axis 0 0 0   XYZ
    dof ry rz
    limits (-20.0 10.0)
           (0.0 20.0)
  end
  begin
     id 18 
     name lhumerus
     direction 1 -4.48965e-011 1.48782e-027   
     length 4.95681   
     axis 180 -30 -90   XYZ
    dof rx ry rz
    limits (-60.0 90.0)
           (-90.0 90.0)
           (-90.0 90.0)
  end
  begin
     id 19
     name lradius
     direction 1 -4.48952e-011 2.06528e-027   
     length 3.40915   
     axis 180 -30 -90   XYZ
    dof rx
    limits (-10.0 170.0)
  end
  begin
     id 20
     name lwrist
     direction 1 -4.48964e-011 1.28021e-027   
     length 1.70457   
     axis -1.61767e-015 90 90   XYZ
    dof ry
    limits (-180.0 0.0)
 end
  begin
     id 21 
     name lhand
     direction 1 -4.49094e-011 2.54887e-027   
     length 0.616403   
     axis -1.63363e-015 90 90   XYZ
    dof rx rz
    limits (-90.0 90.0)
           (-45.0 45.0)
  end
  begin
     id 22 
     name lfingers
     direction 1 -4.49002e-011 5.11407e-027   
     length 0.49696   
     axis -3.26723e-015 90 90   XYZ
    dof rx
    limits (0.0 90.0)
  end
  begin
     id 23
     name lthumb
     direction 0.707107 -6.34998e-011 0.707107   
     length 0.713539   
     axis -90 45 -2.25915e-014   XYZ
    dof rx rz
    limits (-45.0 45.0)
           (-45.0 45.0)
  end
  begin
     id 24 
     name rclavicle
     direction -0.937751 0.334612 -0.0930482   
     length 3.46287  
     axis 0 0 0   XYZ 
    dof ry rz
    limits (-10.0 20.0)
           (-20.0 0.0)
  end
  begin
     id 25 
     name rhumerus
     direction -1 -4.48962e-011 3.59972e-027  
     length 5.352   
     axis 180 30 90   XYZ
    dof rx ry rz
    limits (-90.0 60.0)
           (-90.0 90.0)
           (-90.0 90.0)
  end
  begin
     id 26 
     name rradius
     direction -1 -4.48987e-011 -3.76925e-027   
     length 3.43721   
     axis 180 30 90   XYZ
    dof rx
    limits (-10.0 170.0)
  end
  begin
     id 27 
     name rwrist
     direction -1 -4.48943e-011 1.28112e-027   
     length 1.7186   
     axis -1.61767e-015 -90 -90   XYZ
    dof ry
    limits (-180.0 0.0)
  end
  begin
     id 28
     name rhand
     direction -1 -4.49027e-011 2.55483e-027   
     length 0.72009   
     axis -1.63363e-015 -90 -90   XYZ
    dof rx rz
    limits (-90.0 90.0)
           (-45.0 45.0)
  end
  begin
     id 29
     name rfingers
     direction -1 -4.48827e-011 5.14506e-027   
     length 0.580555   
     axis -3.26723e-015 -90 -90   XYZ
    dof rx
    limits (0.0 90.0)
  end
  begin
     id 30
     name rthumb
     direction -0.707107 -6.34936e-011 0.707107   
     length 0.833564   
     axis -90 -45 2.25915e-014   XYZ
    dof rx rz
    limits (-45.0 45.0)
           (-45.0 45.0)
  end
:hierarchy
  begin
    root lhipjoint rhipjoint lowerback
    lhipjoint lfemur
    lfemur ltibia
    ltibia lfoot
    lfoot ltoes
    rhipjoint rfemur
    rfemur rtibia
    rtibia rfoot
    rfoot rtoes
    lowerback upperback
    upperback thorax
    thorax lowerneck lclavicle rclavicle
    lowerneck upperneck
    upperneck head
    lclavicle lhumerus
    lhumerus lradius
    lradius lwrist
    lwrist lhand lthumb
    lhand lfingers
    rclavicle rhumerus
    rhumerus rradius
    rradius rwrist
    rwrist rhand rthumb
    rhand rfingers
  end

#!OML:ASF H:\Terrain\Patient Classification 1\Terrain2\Thursday\justin.ASF
:FULLY-SPECIFIED
:DEGREES
809
root 29.6289 17.4857 -10.8823 98.2091 -82.9346 -459.042
lowerback 6.85819 1.59118 6.81755
upperback 3.21368 2.39057 4.14228
thorax -0.401584 1.15029 0.295847
lowerneck -12.5291 -0.974323 -8.97661
upperneck 39.1244 -2.04409 3.64059
head 16.2069 -2.24982 2.69862
rclavicle 1.2921e-014 3.57812e-014
rhumerus -26.7969 -11.9617 -74.3515
rradius 31.1253
rwrist -12.392
rhand -22.1034 10.9278
rfingers 7.12502
rthumb 4.30888 -19.0084
lclavicle 1.2921e-014 3.57812e-014
lhumerus -34.3408 15.9564 81.2305
lradius 23.671
lwrist -4.76776
lhand -17.1492 19.5729
lfingers 7.12502
lthumb 9.09142 49.357
rfemur -0.107399 -5.80244 30.5208
rtibia 23.8405
rfoot -21.0052 4.76491
rtoes 12.6621
lfemur -25.8061 -1.29245 -9.77437
ltibia 59.1869
lfoot -10.5881 -6.85073
ltoes 6.24899
810
root 29.5971 17.4818 -10.8922 98.5225 -82.7024 -459.376
lowerback 6.92103 1.52945 6.86761
upperback 3.29351 2.30136 4.38065
thorax -0.364189 1.10092 0.520419
lowerneck -12.7294 -0.940131 -9.37008
upperneck 39.2039 -1.82371 3.5723
head 16.2873 -2.22735 2.77772
rclavicle 2.31584e-014 3.57812e-014
rhumerus -26.5897 -10.964 -74.2953
rradius 31.2956
rwrist -13.0145
rhand -22.2856 10.8606
rfingers 7.12502
rthumb 4.13296 -19.0791
lclavicle 2.31584e-014 3.57812e-014
lhumerus -34.4013 16.8021 81.4483
lradius 23.7614
lwrist -4.98042
lhand -17.2386 19.2003
lfingers 7.12502
lthumb 9.00506 48.9881
rfemur 0.181275 -5.87443 30.7898
rtibia 23.542
rfoot -20.9568 4.76589
rtoes 11.1876
lfemur -26.4061 -0.701681 -9.58765
ltibia 59.1775
lfoot -10.9232 -6.41799
ltoes 4.05168
811
root 29.5606 17.4917 -10.9031 98.2484 -82.4552 -459.152
lowerback 7.03495 1.56431 7.12317
upperback 3.28433 2.37231 4.40631
thorax -0.422884 1.13513 0.397931
lowerneck -12.555 -0.984755 -9.31807
upperneck 39.0759 -1.92279 3.58057
head 16.185 -2.25455 2.75285
rclavicle -2.19657e-014 -1.74931e-014
rhumerus -26.6803 -10.8974 -74.2864
rradius 31.3027
rwrist -12.96
rhand -22.2965 11.0104
rfingers 7.12502
rthumb 4.12248 -18.9295
lclavicle -2.19657e-014 -1.74931e-014
lhumerus -34.5679 16.922 81.4086
lradius 23.9552
lwrist -5.21956
lhand -17.064 19.0819
lfingers 7.12502
lthumb 9.1736 48.8624
rfemur 0.473337 -5.76895 31.0831
rtibia 23.3758
rfoot -20.8511 5.00662
rtoes 12.2271
lfemur -26.9293 -0.0621672 -9.34745
ltibia 58.88
lfoot -11.3221 -5.86671
ltoes 1.60386
812
root 29.5226 17.526 -10.9132 98.4459 -82.4361 -459.439
lowerback 7.24723 1.66524 7.20826
upperback 3.26925 2.53615 4.32792
thorax -0.541396 1.21538 0.251882
lowerneck -12.3151 -1.05843 -9.19297
upperneck 38.8586 -2.0914 3.6089
head 16.0255 -2.29224 2.71125
rclavicle 2.18663e-014 3.81667e-014
rhumerus -26.8316 -11.2354 -74.1969
rradius 31.2269
rwrist -12.3747
rhand -22.4452 11.1043
rfingers 7.12502
rthumb 3.97887 -18.8383
lclavicle 2.18663e-014 3.81667e-014
lhumerus -34.6642 16.7212 81.4576
lradius 24.1458
lwrist -5.52109
lhand -16.9612 19.3553
lfingers 7.12502
lthumb 9.27274 49.1314
rfemur 0.874377 -5.04737 31.0835
rtibia 23.2794
rfoot -20.5934 5.68014
rtoes 18.1584
lfemur -27.2184 0.226356 -9.31497
ltibia 58.29
lfoot -11.3388 -5.64225
ltoes 4.88539
813
root 29.4799 17.5897 -10.9256 98.8178 -82.6761 -459.761
lowerback 7.26608 1.7281 6.90705
upperback 3.29129 2.60317 4.31268
thorax -0.540644 1.24795 0.397138
lowerneck -12.3555 -1.12602 -9.35133
upperneck 38.8064 -2.15583 3.67124
head 16.0192 -2.32854 2.75596
rclavicle -2.88238e-015 -2.14687e-014
rhumerus -26.7589 -11.3068 -74.0178
rradius 31.1328
rwrist -11.8714
rhand -22.3541 11.1806
rfingers 7.12502
rthumb 4.06686 -18.7604
lclavicle -2.88238e-015 -2.14687e-014
lhumerus -34.6554 16.5717 81.7829
lradius 24.3956
lwrist -5.23397
lhand -17.1111 19.4431
lfingers 7.12502
lthumb 9.12816 49.2255
rfemur 1.32315 -3.80383 30.8258
rtibia 22.9745
rfoot -20.3902 6.27819
rtoes 24.8626
lfemur -27.4784 0.437184 -9.62575
ltibia 57.4992
lfoot -11.322 -5.35171
ltoes 6.42591
